<?xml version="1.0" encoding="UTF-8" standalone="no"?>
<svg width="32px" height="32px" viewBox="0 0 32 32" version="1.1" xmlns="http://www.w3.org/2000/svg" xmlns:xlink="http://www.w3.org/1999/xlink">
    <!-- Generator: Sketch 3.8.2 (29753) - http://www.bohemiancoding.com/sketch -->
    <title>user-says</title>
    <desc>Created with Sketch.</desc>
    <defs></defs>
    <g id="Page-1" stroke="none" stroke-width="1" fill="none" fill-rule="evenodd">
        <g id="user-says">
            <g id="Group-Copy-3">
                <circle id="Oval-45" fill="#929292" cx="16" cy="16" r="16"></circle>
                <g id="Group" transform="translate(5.000000, 5.000000)" fill="#FFFFFF">
                    <ellipse id="Oval-46" cx="11" cy="10" rx="6.5" ry="6.5"></ellipse>
                    <path d="M17.3465229,1.97094957 C16.8831341,1.37562594 16.2737479,0.834358714 15.5307957,0.390151152 C15.2958669,0.250088239 15.0479724,0.118828476 14.7865779,-1.77635684e-15 C15.5302332,0.729845905 15.3778796,1.92575256 13.444027,2.25799417 C13.0883291,2.31894122 12.6722466,2.35063819 12.1909421,2.3453788 C11.7227438,2.34014754 11.1927829,2.29961929 10.5939999,2.21524404 C10.0575701,2.13967194 9.5961219,2.11871876 9.19685823,2.13804069 C8.24763667,2.18298457 7.65520992,2.46313852 7.2911026,2.82519272 C6.99345484,3.12106859 6.84607941,3.47150713 6.77891671,3.7927237 C6.66903201,4.31939401 6.77258857,4.76773596 6.77258857,4.76773596 C6.10835848,4.80165481 5.41996895,5.06828059 4.89523927,5.65066669 C4.66928235,5.90131743 4.47364428,6.20903396 4.32337196,6.58045381 C4.26616554,6.7221761 4.21489351,6.8721953 4.17158088,7.03236764 C4.09921505,7.29955593 4.05438366,7.57366299 4.02749608,7.84968256 C3.97057092,8.4408718 4.0059804,9.04333921 4.09738692,9.62046591 C4.18094654,10.1471362 4.30900004,10.6528252 4.45075046,11.1086203 C4.82340781,12.3044988 5.29036856,13.1587139 5.29036856,13.1587139 C5.26401536,12.8295098 5.35283437,12.2454643 5.53300365,11.5404247 C5.64840087,11.0904234 5.80157007,10.5894313 5.98671749,10.073786 C6.14497734,9.63205345 6.32655287,9.17985836 6.52840659,8.73618518 C6.73644783,8.27982758 6.96586414,7.83398876 7.21223986,7.42147817 C7.42579362,7.06330524 7.65287554,6.73241363 7.88985749,6.43985652 C7.96815772,6.34333123 8.04786421,6.25234659 8.12835819,6.16468071 C8.39346523,6.41119706 8.68644422,6.66845719 9.00465141,6.92214544 C9.45836525,7.28417151 9.96022923,7.63933506 10.5010746,7.9470516 C11.9240069,8.75660399 13.6053244,9.2347304 15.3250888,8.64767554 C15.4282235,8.84649175 15.537827,9.07205492 15.6520992,9.32681192 C15.7894058,9.63317845 15.9336312,9.98417949 16.0797692,10.3784932 C16.1878539,10.6696721 16.2974573,10.9867543 16.4063858,11.3294866 C16.4618203,11.5023715 16.5172267,11.6846501 16.5719581,11.8715694 C16.6735741,12.2165236 16.7746275,12.5821497 16.8730653,12.977279 C17.0573971,12.4779181 17.19746,12.0149511 17.3066697,11.5803905 C17.3659574,11.3454335 17.4188888,11.1157641 17.4594451,10.8982166 C17.5180297,10.5830469 17.559261,10.284696 17.5826892,10.0053858 C17.6290113,9.45914044 17.6146675,8.97882027 17.559261,8.56051591 C17.5024484,8.12843026 17.401395,7.76364793 17.2821446,7.45483452 C17.5829705,7.15482426 17.8246775,6.82834829 18.0022311,6.48201602 C18.4600793,5.58971963 18.5137139,4.57420726 18.209288,3.59174186 C18.0358406,3.03089958 17.7441272,2.48189795 17.3465229,1.97094957 Z" id="Shape"></path>
                    <path d="M21.1517064,26.3079411 C18.3585109,28.5097394 14.8326815,29.8235294 11,29.8235294 C7.16731849,29.8235294 3.64148909,28.5097394 0.848293604,26.3079411 C2.03706238,21.8132842 6.1316017,18.5 11,18.5 C15.8683983,18.5 19.9629376,21.8132842 21.1517064,26.3079411 Z" id="Combined-Shape"></path>
                </g>
            </g>
        </g>
    </g>
</svg>